# xmcd
#
# Track frame offsets: 
#        150
#        10746
#        25118
#        35738
#        68234
#        80235
#        93434
#        111174
#        122115
#        140142
#        153831
#        169413
#        181778
#        198398
#        208589
#        221047
#        233549
#        246194
#
# Disc length: 3420 seconds
#
# Revision: 2
# Processed by: cddbd v1.5.1PL0 Copyright (c) Steve Scherf et al.
# Submitted via: ExactAudioCopy v0.95b2
#
DISCID=fe0d5a12
DTITLE=Buddy Guy - The Buddy Guy Collection
DYEAR=2000
DGENRE=Blues
TTITLE0=First Time I Met The Blues
TTITLE1=Broken Hearted Blues
TTITLE2=I Got My Eyes On You
TTITLE3=Stone Crazy
TTITLE4=Ten Years Ago
TTITLE5=Let Me Love You Baby
TTITLE6=When My Left Eye Jumps
TTITLE7=Hard But It's Fair
TTITLE8=Worried Mind
TTITLE9=My Time After Awhile
TTITLE10=Leave My Girl Alone
TTITLE11=Crazy Love
TTITLE12=Every Girl I See
TTITLE13=Too Many Ways
TTITLE14=Mother In Law Blues
TTITLE15=Keep It To Myself
TTITLE16=I Suffer With The Blues
TTITLE17=She Suits Me To A Tee
EXTD=
EXTT0=
EXTT1=
EXTT2=
EXTT3=
EXTT4=
EXTT5=
EXTT6=
EXTT7=
EXTT8=
EXTT9=
EXTT10=
EXTT11=
EXTT12=
EXTT13=
EXTT14=
EXTT15=
EXTT16=
EXTT17=
PLAYORDER=
